<svg width="15" height="16" viewBox="0 0 15 16" fill="none" xmlns="http://www.w3.org/2000/svg">
<path d="M14.337 0.662864C13.4699 -0.220955 12.0358 -0.220955 11.1686 0.662864L7.49996 4.33155L3.83127 0.662864C2.9641 -0.220955 1.52998 -0.220955 0.662864 0.662864C-0.220955 1.53004 -0.220955 2.96416 0.662864 3.83127L4.33155 7.49996L0.662864 11.1686C-0.220955 12.0358 -0.220955 13.4699 0.662864 14.337C1.09641 14.7706 1.68009 15.004 2.24704 15.004C2.81399 15.004 3.3977 14.7872 3.83121 14.337L7.4999 10.6684L11.1686 14.337C11.6021 14.7706 12.1858 15.004 12.7528 15.004C13.3197 15.004 13.9034 14.7872 14.3369 14.337C15.2207 13.4532 15.2207 12.0358 14.3369 11.152L10.6682 7.48328L14.3369 3.8146C15.221 2.96407 15.221 1.52992 14.3372 0.662864H14.337Z" fill="black"/>
</svg>
